<mxfile host="www.draw.io" modified="2019-10-17T06:54:47.686Z" agent="Mozilla/5.0 (Windows NT 10.0; Win64; x64) AppleWebKit/537.36 (KHTML, like Gecko) Chrome/77.0.3865.90 Safari/537.36" etag="5bYuwMVnNzeeXE--B89w" version="12.1.2" type="github" pages="1">
  <diagram id="EHGtMJ0qzdUWasOliFA4" name="Page-1">
    <mxGraphModel dx="1102" dy="614" grid="1" gridSize="10" guides="1" tooltips="1" connect="1" arrows="1" fold="1" page="1" pageScale="1" pageWidth="827" pageHeight="1169" math="0" shadow="0">
      <root>
        <mxCell id="0"/>
        <mxCell id="1" parent="0"/>
        <mxCell id="20i8F2VBR_8pb6ppFjBq-20" value="" style="rounded=0;whiteSpace=wrap;html=1;fillColor=#0050ef;strokeColor=#001DBC;fontColor=#ffffff;" vertex="1" parent="1">
          <mxGeometry x="70" y="60" width="680" height="480" as="geometry"/>
        </mxCell>
        <mxCell id="20i8F2VBR_8pb6ppFjBq-8" value="" style="edgeStyle=orthogonalEdgeStyle;rounded=0;orthogonalLoop=1;jettySize=auto;html=1;" edge="1" parent="1" source="skDeUB5uUxdcTpCQxtGw-1" target="20i8F2VBR_8pb6ppFjBq-7">
          <mxGeometry relative="1" as="geometry"/>
        </mxCell>
        <mxCell id="skDeUB5uUxdcTpCQxtGw-1" value="负载均衡" style="rounded=1;whiteSpace=wrap;html=1;fillColor=#e1d5e7;strokeColor=#9673a6;" parent="1" vertex="1">
          <mxGeometry x="460" y="240" width="60" height="60" as="geometry"/>
        </mxCell>
        <mxCell id="skDeUB5uUxdcTpCQxtGw-2" value="" style="line;strokeWidth=2;direction=south;html=1;" parent="1" vertex="1">
          <mxGeometry x="550" y="80" width="10" height="410" as="geometry"/>
        </mxCell>
        <mxCell id="skDeUB5uUxdcTpCQxtGw-4" value="" style="edgeStyle=orthogonalEdgeStyle;rounded=0;orthogonalLoop=1;jettySize=auto;html=1;" parent="1" source="skDeUB5uUxdcTpCQxtGw-3" target="skDeUB5uUxdcTpCQxtGw-1" edge="1">
          <mxGeometry relative="1" as="geometry"/>
        </mxCell>
        <mxCell id="skDeUB5uUxdcTpCQxtGw-3" value="执行器" style="ellipse;shape=doubleEllipse;whiteSpace=wrap;html=1;fillColor=#d5e8d4;strokeColor=#82b366;" parent="1" vertex="1">
          <mxGeometry x="580" y="140" width="100" height="60" as="geometry"/>
        </mxCell>
        <mxCell id="20i8F2VBR_8pb6ppFjBq-1" value="mysql" style="shape=cylinder;whiteSpace=wrap;html=1;boundedLbl=1;backgroundOutline=1;fillColor=#d5e8d4;strokeColor=#82b366;" vertex="1" parent="1">
          <mxGeometry x="430" y="400" width="60" height="80" as="geometry"/>
        </mxCell>
        <mxCell id="20i8F2VBR_8pb6ppFjBq-2" value="rabbitmq集群" style="ellipse;whiteSpace=wrap;html=1;aspect=fixed;fillColor=#d5e8d4;strokeColor=#82b366;" vertex="1" parent="1">
          <mxGeometry x="150" y="400" width="80" height="80" as="geometry"/>
        </mxCell>
        <mxCell id="20i8F2VBR_8pb6ppFjBq-3" value="sms" style="ellipse;shape=cloud;whiteSpace=wrap;html=1;fillColor=#dae8fc;strokeColor=#6c8ebf;" vertex="1" parent="1">
          <mxGeometry x="350" y="80" width="120" height="80" as="geometry"/>
        </mxCell>
        <mxCell id="20i8F2VBR_8pb6ppFjBq-4" value="email" style="ellipse;shape=cloud;whiteSpace=wrap;html=1;fillColor=#dae8fc;strokeColor=#6c8ebf;" vertex="1" parent="1">
          <mxGeometry x="180" y="80" width="120" height="80" as="geometry"/>
        </mxCell>
        <mxCell id="20i8F2VBR_8pb6ppFjBq-5" value="redis集群" style="shape=cube;whiteSpace=wrap;html=1;boundedLbl=1;backgroundOutline=1;darkOpacity=0.05;darkOpacity2=0.1;fillColor=#d5e8d4;strokeColor=#82b366;" vertex="1" parent="1">
          <mxGeometry x="300" y="410" width="80" height="60" as="geometry"/>
        </mxCell>
        <mxCell id="20i8F2VBR_8pb6ppFjBq-10" value="" style="edgeStyle=orthogonalEdgeStyle;rounded=0;orthogonalLoop=1;jettySize=auto;html=1;entryX=0.55;entryY=0.95;entryDx=0;entryDy=0;entryPerimeter=0;exitX=0.75;exitY=0;exitDx=0;exitDy=0;" edge="1" parent="1" source="20i8F2VBR_8pb6ppFjBq-7" target="20i8F2VBR_8pb6ppFjBq-3">
          <mxGeometry relative="1" as="geometry"/>
        </mxCell>
        <mxCell id="20i8F2VBR_8pb6ppFjBq-12" value="" style="edgeStyle=orthogonalEdgeStyle;rounded=0;orthogonalLoop=1;jettySize=auto;html=1;exitX=0.25;exitY=0;exitDx=0;exitDy=0;" edge="1" parent="1" source="20i8F2VBR_8pb6ppFjBq-7" target="20i8F2VBR_8pb6ppFjBq-4">
          <mxGeometry relative="1" as="geometry"/>
        </mxCell>
        <mxCell id="20i8F2VBR_8pb6ppFjBq-14" value="" style="edgeStyle=orthogonalEdgeStyle;rounded=0;orthogonalLoop=1;jettySize=auto;html=1;entryX=0.5;entryY=0;entryDx=0;entryDy=0;" edge="1" parent="1" source="20i8F2VBR_8pb6ppFjBq-7" target="20i8F2VBR_8pb6ppFjBq-2">
          <mxGeometry relative="1" as="geometry">
            <mxPoint x="330" y="380" as="targetPoint"/>
          </mxGeometry>
        </mxCell>
        <mxCell id="20i8F2VBR_8pb6ppFjBq-16" value="" style="edgeStyle=orthogonalEdgeStyle;rounded=0;orthogonalLoop=1;jettySize=auto;html=1;entryX=0;entryY=0;entryDx=30;entryDy=0;entryPerimeter=0;" edge="1" parent="1" source="20i8F2VBR_8pb6ppFjBq-7" target="20i8F2VBR_8pb6ppFjBq-5">
          <mxGeometry relative="1" as="geometry">
            <mxPoint x="330" y="380" as="targetPoint"/>
          </mxGeometry>
        </mxCell>
        <mxCell id="20i8F2VBR_8pb6ppFjBq-19" style="edgeStyle=orthogonalEdgeStyle;rounded=0;orthogonalLoop=1;jettySize=auto;html=1;exitX=0.75;exitY=1;exitDx=0;exitDy=0;entryX=0.5;entryY=0;entryDx=0;entryDy=0;" edge="1" parent="1" source="20i8F2VBR_8pb6ppFjBq-7" target="20i8F2VBR_8pb6ppFjBq-1">
          <mxGeometry relative="1" as="geometry"/>
        </mxCell>
        <mxCell id="20i8F2VBR_8pb6ppFjBq-7" value="控制台集群" style="rounded=1;whiteSpace=wrap;html=1;fillColor=#f8cecc;strokeColor=#b85450;" vertex="1" parent="1">
          <mxGeometry x="270" y="240" width="120" height="60" as="geometry"/>
        </mxCell>
        <mxCell id="20i8F2VBR_8pb6ppFjBq-23" value="" style="edgeStyle=orthogonalEdgeStyle;rounded=0;orthogonalLoop=1;jettySize=auto;html=1;entryX=0.5;entryY=1;entryDx=0;entryDy=0;" edge="1" parent="1" source="20i8F2VBR_8pb6ppFjBq-21" target="skDeUB5uUxdcTpCQxtGw-1">
          <mxGeometry relative="1" as="geometry">
            <mxPoint x="510" y="350" as="targetPoint"/>
          </mxGeometry>
        </mxCell>
        <mxCell id="20i8F2VBR_8pb6ppFjBq-21" value="设计器" style="ellipse;shape=doubleEllipse;whiteSpace=wrap;html=1;fillColor=#d5e8d4;strokeColor=#82b366;" vertex="1" parent="1">
          <mxGeometry x="590" y="320" width="100" height="60" as="geometry"/>
        </mxCell>
      </root>
    </mxGraphModel>
  </diagram>
</mxfile>
